<mxfile host="app.diagrams.net" modified="2024-05-24T22:06:42.413Z" agent="Mozilla/5.0 (Windows NT 10.0; Win64; x64) AppleWebKit/537.36 (KHTML, like Gecko) Chrome/125.0.0.0 Safari/537.36" etag="HCV_NjvuFQlmTfFAcBw6" version="24.4.6" type="github">
  <diagram name="Page-1" id="5UBuHsfjpt4iNKurUicg">
    <mxGraphModel dx="1673" dy="1842" grid="1" gridSize="10" guides="1" tooltips="1" connect="1" arrows="1" fold="1" page="1" pageScale="1" pageWidth="827" pageHeight="1169" math="0" shadow="0">
      <root>
        <mxCell id="0" />
        <mxCell id="1" parent="0" />
        <mxCell id="UJ53TDWJrt-Uf5NckLxE-1" value="&lt;span style=&quot;font-size:14.0pt;line-height:107%;&lt;br/&gt;font-family:&amp;quot;Bahnschrift Light SemiCondensed&amp;quot;,sans-serif;mso-fareast-font-family:&lt;br/&gt;Calibri;mso-fareast-theme-font:minor-latin;mso-bidi-font-family:Arial;&lt;br/&gt;mso-ansi-language:EN-US;mso-fareast-language:EN-US;mso-bidi-language:AR-SA&quot;&gt;Association&amp;nbsp;&lt;/span&gt;" style="swimlane;fontStyle=1;align=center;verticalAlign=top;childLayout=stackLayout;horizontal=1;startSize=26;horizontalStack=0;resizeParent=1;resizeParentMax=0;resizeLast=0;collapsible=1;marginBottom=0;whiteSpace=wrap;html=1;" parent="1" vertex="1">
          <mxGeometry x="460" y="180" width="160" height="294" as="geometry" />
        </mxCell>
        <mxCell id="UJ53TDWJrt-Uf5NckLxE-2" value="- id :int" style="text;strokeColor=none;fillColor=none;align=left;verticalAlign=top;spacingLeft=4;spacingRight=4;overflow=hidden;rotatable=0;points=[[0,0.5],[1,0.5]];portConstraint=eastwest;whiteSpace=wrap;html=1;" parent="UJ53TDWJrt-Uf5NckLxE-1" vertex="1">
          <mxGeometry y="26" width="160" height="26" as="geometry" />
        </mxCell>
        <mxCell id="UJ53TDWJrt-Uf5NckLxE-3" value="- name: string" style="text;strokeColor=none;fillColor=none;align=left;verticalAlign=top;spacingLeft=4;spacingRight=4;overflow=hidden;rotatable=0;points=[[0,0.5],[1,0.5]];portConstraint=eastwest;whiteSpace=wrap;html=1;" parent="UJ53TDWJrt-Uf5NckLxE-1" vertex="1">
          <mxGeometry y="52" width="160" height="26" as="geometry" />
        </mxCell>
        <mxCell id="UJ53TDWJrt-Uf5NckLxE-4" value="- members :int" style="text;strokeColor=none;fillColor=none;align=left;verticalAlign=top;spacingLeft=4;spacingRight=4;overflow=hidden;rotatable=0;points=[[0,0.5],[1,0.5]];portConstraint=eastwest;whiteSpace=wrap;html=1;" parent="UJ53TDWJrt-Uf5NckLxE-1" vertex="1">
          <mxGeometry y="78" width="160" height="26" as="geometry" />
        </mxCell>
        <mxCell id="UJ53TDWJrt-Uf5NckLxE-5" value="- money :float" style="text;strokeColor=none;fillColor=none;align=left;verticalAlign=top;spacingLeft=4;spacingRight=4;overflow=hidden;rotatable=0;points=[[0,0.5],[1,0.5]];portConstraint=eastwest;whiteSpace=wrap;html=1;" parent="UJ53TDWJrt-Uf5NckLxE-1" vertex="1">
          <mxGeometry y="104" width="160" height="26" as="geometry" />
        </mxCell>
        <mxCell id="UJ53TDWJrt-Uf5NckLxE-6" value="" style="line;strokeWidth=1;fillColor=none;align=left;verticalAlign=middle;spacingTop=-1;spacingLeft=3;spacingRight=3;rotatable=0;labelPosition=right;points=[];portConstraint=eastwest;strokeColor=inherit;" parent="UJ53TDWJrt-Uf5NckLxE-1" vertex="1">
          <mxGeometry y="130" width="160" height="8" as="geometry" />
        </mxCell>
        <mxCell id="UJ53TDWJrt-Uf5NckLxE-7" value="+ setname(name)" style="text;strokeColor=none;fillColor=none;align=left;verticalAlign=top;spacingLeft=4;spacingRight=4;overflow=hidden;rotatable=0;points=[[0,0.5],[1,0.5]];portConstraint=eastwest;whiteSpace=wrap;html=1;" parent="UJ53TDWJrt-Uf5NckLxE-1" vertex="1">
          <mxGeometry y="138" width="160" height="26" as="geometry" />
        </mxCell>
        <mxCell id="UJ53TDWJrt-Uf5NckLxE-8" value="+ getname() : string" style="text;strokeColor=none;fillColor=none;align=left;verticalAlign=top;spacingLeft=4;spacingRight=4;overflow=hidden;rotatable=0;points=[[0,0.5],[1,0.5]];portConstraint=eastwest;whiteSpace=wrap;html=1;" parent="UJ53TDWJrt-Uf5NckLxE-1" vertex="1">
          <mxGeometry y="164" width="160" height="26" as="geometry" />
        </mxCell>
        <mxCell id="UJ53TDWJrt-Uf5NckLxE-9" value="+ setmember(int)" style="text;strokeColor=none;fillColor=none;align=left;verticalAlign=top;spacingLeft=4;spacingRight=4;overflow=hidden;rotatable=0;points=[[0,0.5],[1,0.5]];portConstraint=eastwest;whiteSpace=wrap;html=1;" parent="UJ53TDWJrt-Uf5NckLxE-1" vertex="1">
          <mxGeometry y="190" width="160" height="26" as="geometry" />
        </mxCell>
        <mxCell id="UJ53TDWJrt-Uf5NckLxE-10" value="+ getmember() : int" style="text;strokeColor=none;fillColor=none;align=left;verticalAlign=top;spacingLeft=4;spacingRight=4;overflow=hidden;rotatable=0;points=[[0,0.5],[1,0.5]];portConstraint=eastwest;whiteSpace=wrap;html=1;" parent="UJ53TDWJrt-Uf5NckLxE-1" vertex="1">
          <mxGeometry y="216" width="160" height="26" as="geometry" />
        </mxCell>
        <mxCell id="UJ53TDWJrt-Uf5NckLxE-11" value="+ setmoney(float)&amp;nbsp;" style="text;strokeColor=none;fillColor=none;align=left;verticalAlign=top;spacingLeft=4;spacingRight=4;overflow=hidden;rotatable=0;points=[[0,0.5],[1,0.5]];portConstraint=eastwest;whiteSpace=wrap;html=1;" parent="UJ53TDWJrt-Uf5NckLxE-1" vertex="1">
          <mxGeometry y="242" width="160" height="26" as="geometry" />
        </mxCell>
        <mxCell id="UJ53TDWJrt-Uf5NckLxE-12" value="+ getmoney() float" style="text;strokeColor=none;fillColor=none;align=left;verticalAlign=top;spacingLeft=4;spacingRight=4;overflow=hidden;rotatable=0;points=[[0,0.5],[1,0.5]];portConstraint=eastwest;whiteSpace=wrap;html=1;" parent="UJ53TDWJrt-Uf5NckLxE-1" vertex="1">
          <mxGeometry y="268" width="160" height="26" as="geometry" />
        </mxCell>
        <mxCell id="UJ53TDWJrt-Uf5NckLxE-32" value="admin" style="swimlane;fontStyle=0;childLayout=stackLayout;horizontal=1;startSize=26;fillColor=none;horizontalStack=0;resizeParent=1;resizeParentMax=0;resizeLast=0;collapsible=1;marginBottom=0;whiteSpace=wrap;html=1;" parent="1" vertex="1">
          <mxGeometry x="540" y="-130" width="140" height="104" as="geometry" />
        </mxCell>
        <mxCell id="UJ53TDWJrt-Uf5NckLxE-34" value="+ field: type" style="text;strokeColor=none;fillColor=none;align=left;verticalAlign=top;spacingLeft=4;spacingRight=4;overflow=hidden;rotatable=0;points=[[0,0.5],[1,0.5]];portConstraint=eastwest;whiteSpace=wrap;html=1;" parent="UJ53TDWJrt-Uf5NckLxE-32" vertex="1">
          <mxGeometry y="26" width="140" height="26" as="geometry" />
        </mxCell>
        <mxCell id="UJ53TDWJrt-Uf5NckLxE-35" value="+ field: type" style="text;strokeColor=none;fillColor=none;align=left;verticalAlign=top;spacingLeft=4;spacingRight=4;overflow=hidden;rotatable=0;points=[[0,0.5],[1,0.5]];portConstraint=eastwest;whiteSpace=wrap;html=1;" parent="UJ53TDWJrt-Uf5NckLxE-32" vertex="1">
          <mxGeometry y="52" width="140" height="26" as="geometry" />
        </mxCell>
        <mxCell id="UJ53TDWJrt-Uf5NckLxE-33" value="+ field: type" style="text;strokeColor=none;fillColor=none;align=left;verticalAlign=top;spacingLeft=4;spacingRight=4;overflow=hidden;rotatable=0;points=[[0,0.5],[1,0.5]];portConstraint=eastwest;whiteSpace=wrap;html=1;" parent="UJ53TDWJrt-Uf5NckLxE-32" vertex="1">
          <mxGeometry y="78" width="140" height="26" as="geometry" />
        </mxCell>
        <mxCell id="UJ53TDWJrt-Uf5NckLxE-41" value="subscriber" style="swimlane;fontStyle=0;childLayout=stackLayout;horizontal=1;startSize=26;fillColor=none;horizontalStack=0;resizeParent=1;resizeParentMax=0;resizeLast=0;collapsible=1;marginBottom=0;whiteSpace=wrap;html=1;" parent="1" vertex="1">
          <mxGeometry x="240" y="-104" width="140" height="130" as="geometry" />
        </mxCell>
        <mxCell id="UJ53TDWJrt-Uf5NckLxE-42" value="float number of package" style="text;strokeColor=none;fillColor=none;align=left;verticalAlign=top;spacingLeft=4;spacingRight=4;overflow=hidden;rotatable=0;points=[[0,0.5],[1,0.5]];portConstraint=eastwest;whiteSpace=wrap;html=1;" parent="UJ53TDWJrt-Uf5NckLxE-41" vertex="1">
          <mxGeometry y="26" width="140" height="26" as="geometry" />
        </mxCell>
        <mxCell id="UJ53TDWJrt-Uf5NckLxE-43" value="amount of money" style="text;strokeColor=none;fillColor=none;align=left;verticalAlign=top;spacingLeft=4;spacingRight=4;overflow=hidden;rotatable=0;points=[[0,0.5],[1,0.5]];portConstraint=eastwest;whiteSpace=wrap;html=1;" parent="UJ53TDWJrt-Uf5NckLxE-41" vertex="1">
          <mxGeometry y="52" width="140" height="26" as="geometry" />
        </mxCell>
        <mxCell id="UJ53TDWJrt-Uf5NckLxE-44" value="delivery date for each package" style="text;strokeColor=none;fillColor=none;align=left;verticalAlign=top;spacingLeft=4;spacingRight=4;overflow=hidden;rotatable=0;points=[[0,0.5],[1,0.5]];portConstraint=eastwest;whiteSpace=wrap;html=1;" parent="UJ53TDWJrt-Uf5NckLxE-41" vertex="1">
          <mxGeometry y="78" width="140" height="52" as="geometry" />
        </mxCell>
        <mxCell id="UJ53TDWJrt-Uf5NckLxE-45" value="" style="edgeStyle=entityRelationEdgeStyle;fontSize=12;html=1;endArrow=ERoneToMany;rounded=0;" parent="1" source="UJ53TDWJrt-Uf5NckLxE-32" target="UJ53TDWJrt-Uf5NckLxE-1" edge="1">
          <mxGeometry width="100" height="100" relative="1" as="geometry">
            <mxPoint x="510" y="190" as="sourcePoint" />
            <mxPoint x="610" y="90" as="targetPoint" />
          </mxGeometry>
        </mxCell>
        <mxCell id="UJ53TDWJrt-Uf5NckLxE-47" value="subsciber association" style="swimlane;fontStyle=0;childLayout=stackLayout;horizontal=1;startSize=26;fillColor=none;horizontalStack=0;resizeParent=1;resizeParentMax=0;resizeLast=0;collapsible=1;marginBottom=0;whiteSpace=wrap;html=1;" parent="1" vertex="1">
          <mxGeometry x="290" y="50" width="140" height="78" as="geometry" />
        </mxCell>
        <mxCell id="UJ53TDWJrt-Uf5NckLxE-48" value="int associatin id" style="text;strokeColor=none;fillColor=none;align=left;verticalAlign=top;spacingLeft=4;spacingRight=4;overflow=hidden;rotatable=0;points=[[0,0.5],[1,0.5]];portConstraint=eastwest;whiteSpace=wrap;html=1;" parent="UJ53TDWJrt-Uf5NckLxE-47" vertex="1">
          <mxGeometry y="26" width="140" height="26" as="geometry" />
        </mxCell>
        <mxCell id="UJ53TDWJrt-Uf5NckLxE-49" value="int subsciber id" style="text;strokeColor=none;fillColor=none;align=left;verticalAlign=top;spacingLeft=4;spacingRight=4;overflow=hidden;rotatable=0;points=[[0,0.5],[1,0.5]];portConstraint=eastwest;whiteSpace=wrap;html=1;" parent="UJ53TDWJrt-Uf5NckLxE-47" vertex="1">
          <mxGeometry y="52" width="140" height="26" as="geometry" />
        </mxCell>
        <mxCell id="UJ53TDWJrt-Uf5NckLxE-51" value="" style="edgeStyle=entityRelationEdgeStyle;fontSize=12;html=1;endArrow=ERoneToMany;rounded=0;" parent="1" source="UJ53TDWJrt-Uf5NckLxE-41" target="UJ53TDWJrt-Uf5NckLxE-47" edge="1">
          <mxGeometry width="100" height="100" relative="1" as="geometry">
            <mxPoint x="120" y="-150" as="sourcePoint" />
            <mxPoint x="110" y="100" as="targetPoint" />
            <Array as="points">
              <mxPoint x="-200" y="166" />
              <mxPoint x="150" y="28" />
              <mxPoint x="-50" y="-32" />
            </Array>
          </mxGeometry>
        </mxCell>
        <mxCell id="UJ53TDWJrt-Uf5NckLxE-53" value="User" style="swimlane;fontStyle=0;childLayout=stackLayout;horizontal=1;startSize=26;fillColor=none;horizontalStack=0;resizeParent=1;resizeParentMax=0;resizeLast=0;collapsible=1;marginBottom=0;whiteSpace=wrap;html=1;" parent="1" vertex="1">
          <mxGeometry x="380" y="-284" width="140" height="104" as="geometry" />
        </mxCell>
        <mxCell id="UJ53TDWJrt-Uf5NckLxE-54" value="int id" style="text;strokeColor=none;fillColor=none;align=left;verticalAlign=top;spacingLeft=4;spacingRight=4;overflow=hidden;rotatable=0;points=[[0,0.5],[1,0.5]];portConstraint=eastwest;whiteSpace=wrap;html=1;" parent="UJ53TDWJrt-Uf5NckLxE-53" vertex="1">
          <mxGeometry y="26" width="140" height="26" as="geometry" />
        </mxCell>
        <mxCell id="UJ53TDWJrt-Uf5NckLxE-55" value="string name" style="text;strokeColor=none;fillColor=none;align=left;verticalAlign=top;spacingLeft=4;spacingRight=4;overflow=hidden;rotatable=0;points=[[0,0.5],[1,0.5]];portConstraint=eastwest;whiteSpace=wrap;html=1;" parent="UJ53TDWJrt-Uf5NckLxE-53" vertex="1">
          <mxGeometry y="52" width="140" height="26" as="geometry" />
        </mxCell>
        <mxCell id="UJ53TDWJrt-Uf5NckLxE-56" value="string role" style="text;strokeColor=none;fillColor=none;align=left;verticalAlign=top;spacingLeft=4;spacingRight=4;overflow=hidden;rotatable=0;points=[[0,0.5],[1,0.5]];portConstraint=eastwest;whiteSpace=wrap;html=1;" parent="UJ53TDWJrt-Uf5NckLxE-53" vertex="1">
          <mxGeometry y="78" width="140" height="26" as="geometry" />
        </mxCell>
        <mxCell id="UJ53TDWJrt-Uf5NckLxE-60" style="edgeStyle=orthogonalEdgeStyle;rounded=0;orthogonalLoop=1;jettySize=auto;html=1;entryX=-0.004;entryY=0.104;entryDx=0;entryDy=0;entryPerimeter=0;" parent="1" source="UJ53TDWJrt-Uf5NckLxE-41" target="UJ53TDWJrt-Uf5NckLxE-53" edge="1">
          <mxGeometry relative="1" as="geometry" />
        </mxCell>
        <mxCell id="UJ53TDWJrt-Uf5NckLxE-61" style="edgeStyle=orthogonalEdgeStyle;rounded=0;orthogonalLoop=1;jettySize=auto;html=1;" parent="1" source="UJ53TDWJrt-Uf5NckLxE-32" target="UJ53TDWJrt-Uf5NckLxE-53" edge="1">
          <mxGeometry relative="1" as="geometry">
            <mxPoint x="629.3800000000001" y="-121.87200000000007" as="sourcePoint" />
            <mxPoint x="537" y="-258.81600000000003" as="targetPoint" />
            <Array as="points">
              <mxPoint x="620" y="-240" />
              <mxPoint x="537" y="-240" />
              <mxPoint x="537" y="-232" />
            </Array>
          </mxGeometry>
        </mxCell>
        <mxCell id="U8FhN1sa_5-zTdxYwphC-2" value="" style="shape=umlLifeline;perimeter=lifelinePerimeter;whiteSpace=wrap;html=1;container=1;dropTarget=0;collapsible=0;recursiveResize=0;outlineConnect=0;portConstraint=eastwest;newEdgeStyle={&quot;curved&quot;:0,&quot;rounded&quot;:0};participant=umlActor;" parent="1" vertex="1">
          <mxGeometry x="90" y="-980" width="20" height="560" as="geometry" />
        </mxCell>
        <mxCell id="U8FhN1sa_5-zTdxYwphC-3" value="Association" style="shape=umlLifeline;perimeter=lifelinePerimeter;whiteSpace=wrap;html=1;container=1;dropTarget=0;collapsible=0;recursiveResize=0;outlineConnect=0;portConstraint=eastwest;newEdgeStyle={&quot;curved&quot;:0,&quot;rounded&quot;:0};" parent="1" vertex="1">
          <mxGeometry x="210" y="-990" width="100" height="530" as="geometry" />
        </mxCell>
        <mxCell id="U8FhN1sa_5-zTdxYwphC-5" value="Subscriber" style="shape=umlLifeline;perimeter=lifelinePerimeter;whiteSpace=wrap;html=1;container=1;dropTarget=0;collapsible=0;recursiveResize=0;outlineConnect=0;portConstraint=eastwest;newEdgeStyle={&quot;curved&quot;:0,&quot;rounded&quot;:0};" parent="1" vertex="1">
          <mxGeometry x="360" y="-990" width="100" height="520" as="geometry" />
        </mxCell>
        <mxCell id="U8FhN1sa_5-zTdxYwphC-6" value="" style="endArrow=block;dashed=1;endFill=0;endSize=12;html=1;rounded=0;" parent="1" edge="1">
          <mxGeometry width="160" relative="1" as="geometry">
            <mxPoint x="100" y="-920" as="sourcePoint" />
            <mxPoint x="260" y="-920" as="targetPoint" />
          </mxGeometry>
        </mxCell>
        <mxCell id="U8FhN1sa_5-zTdxYwphC-7" value="Create New" style="text;align=center;fontStyle=1;verticalAlign=middle;spacingLeft=3;spacingRight=3;strokeColor=none;rotatable=0;points=[[0,0.5],[1,0.5]];portConstraint=eastwest;html=1;" parent="1" vertex="1">
          <mxGeometry x="140" y="-940" width="80" height="26" as="geometry" />
        </mxCell>
        <mxCell id="U8FhN1sa_5-zTdxYwphC-10" value="Display member" style="html=1;verticalAlign=bottom;endArrow=open;dashed=1;endSize=8;curved=0;rounded=0;" parent="1" edge="1">
          <mxGeometry relative="1" as="geometry">
            <mxPoint x="408.83" y="-770" as="sourcePoint" />
            <mxPoint x="98.99666666666651" y="-770" as="targetPoint" />
          </mxGeometry>
        </mxCell>
        <mxCell id="U8FhN1sa_5-zTdxYwphC-13" value="&lt;span style=&quot;font-size: 12px; font-weight: 700; background-color: rgb(251, 251, 251);&quot;&gt;Get members&lt;/span&gt;" style="html=1;verticalAlign=bottom;endArrow=block;curved=0;rounded=0;" parent="1" edge="1">
          <mxGeometry width="80" relative="1" as="geometry">
            <mxPoint x="98.99666666666651" y="-807.42" as="sourcePoint" />
            <mxPoint x="413.15999999999997" y="-807.42" as="targetPoint" />
          </mxGeometry>
        </mxCell>
        <mxCell id="U8FhN1sa_5-zTdxYwphC-17" value="Add member" style="html=1;verticalAlign=bottom;endArrow=block;curved=0;rounded=0;" parent="1" edge="1">
          <mxGeometry width="80" relative="1" as="geometry">
            <mxPoint x="103.99666666666651" y="-890" as="sourcePoint" />
            <mxPoint x="413.83" y="-890" as="targetPoint" />
          </mxGeometry>
        </mxCell>
        <mxCell id="U8FhN1sa_5-zTdxYwphC-18" value="Response Message&amp;nbsp;" style="html=1;verticalAlign=bottom;endArrow=open;dashed=1;endSize=8;curved=0;rounded=0;" parent="1" edge="1">
          <mxGeometry relative="1" as="geometry">
            <mxPoint x="413.83" y="-870" as="sourcePoint" />
            <mxPoint x="103.99666666666651" y="-870" as="targetPoint" />
          </mxGeometry>
        </mxCell>
        <mxCell id="U8FhN1sa_5-zTdxYwphC-19" value="frame" style="shape=umlFrame;whiteSpace=wrap;html=1;pointerEvents=0;" parent="1" vertex="1">
          <mxGeometry x="24" y="-840" width="390" height="110" as="geometry" />
        </mxCell>
        <mxCell id="U8FhN1sa_5-zTdxYwphC-20" value="If has&amp;nbsp;&lt;div&gt;member&lt;/div&gt;" style="text;align=center;fontStyle=1;verticalAlign=middle;spacingLeft=3;spacingRight=3;strokeColor=none;rotatable=0;points=[[0,0.5],[1,0.5]];portConstraint=eastwest;html=1;" parent="1" vertex="1">
          <mxGeometry x="19" y="-820" width="80" height="26" as="geometry" />
        </mxCell>
        <mxCell id="U8FhN1sa_5-zTdxYwphC-21" value="else make&amp;nbsp;&lt;div&gt;pre step&lt;/div&gt;" style="text;align=center;fontStyle=1;verticalAlign=middle;spacingLeft=3;spacingRight=3;strokeColor=none;rotatable=0;points=[[0,0.5],[1,0.5]];portConstraint=eastwest;html=1;" parent="1" vertex="1">
          <mxGeometry x="19" y="-780" width="80" height="26" as="geometry" />
        </mxCell>
        <mxCell id="U8FhN1sa_5-zTdxYwphC-23" value="frame" style="shape=umlFrame;whiteSpace=wrap;html=1;pointerEvents=0;" parent="1" vertex="1">
          <mxGeometry x="24" y="-915" width="390" height="65" as="geometry" />
        </mxCell>
        <mxCell id="U8FhN1sa_5-zTdxYwphC-24" value="loop to finish&lt;div&gt;members&lt;/div&gt;" style="text;html=1;align=center;verticalAlign=middle;resizable=0;points=[];autosize=1;strokeColor=none;fillColor=none;" parent="1" vertex="1">
          <mxGeometry x="14" y="-890" width="90" height="40" as="geometry" />
        </mxCell>
        <mxCell id="U8FhN1sa_5-zTdxYwphC-28" style="edgeStyle=orthogonalEdgeStyle;rounded=0;orthogonalLoop=1;jettySize=auto;html=1;entryX=0.5;entryY=0;entryDx=0;entryDy=0;" parent="1" source="U8FhN1sa_5-zTdxYwphC-26" target="U8FhN1sa_5-zTdxYwphC-27" edge="1">
          <mxGeometry relative="1" as="geometry" />
        </mxCell>
        <mxCell id="U8FhN1sa_5-zTdxYwphC-26" value="start" style="strokeWidth=2;html=1;shape=mxgraph.flowchart.start_2;whiteSpace=wrap;" parent="1" vertex="1">
          <mxGeometry x="790" y="-1030" width="100" height="100" as="geometry" />
        </mxCell>
        <mxCell id="U8FhN1sa_5-zTdxYwphC-30" style="edgeStyle=orthogonalEdgeStyle;rounded=0;orthogonalLoop=1;jettySize=auto;html=1;" parent="1" source="U8FhN1sa_5-zTdxYwphC-27" target="U8FhN1sa_5-zTdxYwphC-38" edge="1">
          <mxGeometry relative="1" as="geometry">
            <Array as="points">
              <mxPoint x="670" y="-835" />
            </Array>
          </mxGeometry>
        </mxCell>
        <mxCell id="U8FhN1sa_5-zTdxYwphC-27" value="number_&lt;div&gt;packages&lt;/div&gt;&lt;div&gt;count=0&lt;/div&gt;" style="shape=parallelogram;html=1;strokeWidth=2;perimeter=parallelogramPerimeter;whiteSpace=wrap;rounded=1;arcSize=12;size=0.23;" parent="1" vertex="1">
          <mxGeometry x="790" y="-860" width="100" height="50" as="geometry" />
        </mxCell>
        <mxCell id="U8FhN1sa_5-zTdxYwphC-31" style="edgeStyle=orthogonalEdgeStyle;rounded=0;orthogonalLoop=1;jettySize=auto;html=1;entryX=0.5;entryY=0;entryDx=0;entryDy=0;entryPerimeter=0;" parent="1" source="U8FhN1sa_5-zTdxYwphC-29" target="U8FhN1sa_5-zTdxYwphC-35" edge="1">
          <mxGeometry relative="1" as="geometry">
            <mxPoint x="1010" y="-560" as="targetPoint" />
          </mxGeometry>
        </mxCell>
        <mxCell id="U8FhN1sa_5-zTdxYwphC-33" style="edgeStyle=orthogonalEdgeStyle;rounded=0;orthogonalLoop=1;jettySize=auto;html=1;entryX=0.5;entryY=1;entryDx=0;entryDy=0;" parent="1" source="U8FhN1sa_5-zTdxYwphC-29" target="U8FhN1sa_5-zTdxYwphC-38" edge="1">
          <mxGeometry relative="1" as="geometry">
            <mxPoint x="660" y="-570" as="targetPoint" />
          </mxGeometry>
        </mxCell>
        <mxCell id="U8FhN1sa_5-zTdxYwphC-29" value="n&amp;gt;0 and&lt;div&gt;n&amp;lt;members&lt;/div&gt;&lt;div&gt;and n+pre_n&amp;gt;member&lt;/div&gt;&lt;div&gt;&lt;br&gt;&lt;/div&gt;" style="strokeWidth=2;html=1;shape=mxgraph.flowchart.decision;whiteSpace=wrap;" parent="1" vertex="1">
          <mxGeometry x="790" y="-760" width="100" height="100" as="geometry" />
        </mxCell>
        <mxCell id="U8FhN1sa_5-zTdxYwphC-32" value="Yes" style="text;html=1;align=center;verticalAlign=middle;resizable=0;points=[];autosize=1;strokeColor=none;fillColor=none;" parent="1" vertex="1">
          <mxGeometry x="940" y="-742" width="40" height="30" as="geometry" />
        </mxCell>
        <mxCell id="U8FhN1sa_5-zTdxYwphC-34" value="No" style="text;html=1;align=center;verticalAlign=middle;resizable=0;points=[];autosize=1;strokeColor=none;fillColor=none;" parent="1" vertex="1">
          <mxGeometry x="690" y="-742" width="40" height="30" as="geometry" />
        </mxCell>
        <mxCell id="U8FhN1sa_5-zTdxYwphC-43" value="" style="edgeStyle=orthogonalEdgeStyle;rounded=0;orthogonalLoop=1;jettySize=auto;html=1;" parent="1" source="U8FhN1sa_5-zTdxYwphC-35" target="U8FhN1sa_5-zTdxYwphC-42" edge="1">
          <mxGeometry relative="1" as="geometry" />
        </mxCell>
        <mxCell id="U8FhN1sa_5-zTdxYwphC-61" value="" style="edgeStyle=orthogonalEdgeStyle;rounded=0;orthogonalLoop=1;jettySize=auto;html=1;" parent="1" source="U8FhN1sa_5-zTdxYwphC-35" target="U8FhN1sa_5-zTdxYwphC-60" edge="1">
          <mxGeometry relative="1" as="geometry" />
        </mxCell>
        <mxCell id="U8FhN1sa_5-zTdxYwphC-35" value="count&amp;lt;n" style="strokeWidth=2;html=1;shape=mxgraph.flowchart.decision;whiteSpace=wrap;" parent="1" vertex="1">
          <mxGeometry x="940" y="-590" width="100" height="100" as="geometry" />
        </mxCell>
        <mxCell id="U8FhN1sa_5-zTdxYwphC-38" value="enter n" style="whiteSpace=wrap;html=1;" parent="1" vertex="1">
          <mxGeometry x="590" y="-814" width="120" height="60" as="geometry" />
        </mxCell>
        <mxCell id="U8FhN1sa_5-zTdxYwphC-39" style="edgeStyle=orthogonalEdgeStyle;rounded=0;orthogonalLoop=1;jettySize=auto;html=1;entryX=0.5;entryY=0;entryDx=0;entryDy=0;entryPerimeter=0;" parent="1" source="U8FhN1sa_5-zTdxYwphC-38" target="U8FhN1sa_5-zTdxYwphC-29" edge="1">
          <mxGeometry relative="1" as="geometry" />
        </mxCell>
        <mxCell id="U8FhN1sa_5-zTdxYwphC-42" value="add new package&lt;div&gt;with same information&lt;/div&gt;" style="whiteSpace=wrap;html=1;strokeWidth=2;" parent="1" vertex="1">
          <mxGeometry x="930" y="-390" width="120" height="60" as="geometry" />
        </mxCell>
        <mxCell id="U8FhN1sa_5-zTdxYwphC-44" value="yes" style="text;html=1;align=center;verticalAlign=middle;resizable=0;points=[];autosize=1;strokeColor=none;fillColor=none;" parent="1" vertex="1">
          <mxGeometry x="990" y="-462" width="40" height="30" as="geometry" />
        </mxCell>
        <mxCell id="U8FhN1sa_5-zTdxYwphC-45" style="edgeStyle=orthogonalEdgeStyle;rounded=0;orthogonalLoop=1;jettySize=auto;html=1;entryX=1;entryY=0.5;entryDx=0;entryDy=0;entryPerimeter=0;" parent="1" target="U8FhN1sa_5-zTdxYwphC-35" edge="1">
          <mxGeometry relative="1" as="geometry">
            <mxPoint x="1050.0000000000005" y="-360" as="sourcePoint" />
            <mxPoint x="1100" y="-510" as="targetPoint" />
            <Array as="points">
              <mxPoint x="1050" y="-359" />
              <mxPoint x="1100" y="-359" />
              <mxPoint x="1100" y="-540" />
            </Array>
          </mxGeometry>
        </mxCell>
        <mxCell id="U8FhN1sa_5-zTdxYwphC-60" value="end packages" style="ellipse;whiteSpace=wrap;html=1;strokeWidth=2;" parent="1" vertex="1">
          <mxGeometry x="770" y="-580" width="80" height="80" as="geometry" />
        </mxCell>
        <mxCell id="U8FhN1sa_5-zTdxYwphC-62" value="pre_n save in&amp;nbsp;&lt;div&gt;cach memory&lt;/div&gt;" style="strokeWidth=2;html=1;shape=mxgraph.flowchart.document2;whiteSpace=wrap;size=0.25;" parent="1" vertex="1">
          <mxGeometry x="660" y="-680" width="100" height="60" as="geometry" />
        </mxCell>
        <mxCell id="U8FhN1sa_5-zTdxYwphC-65" style="edgeStyle=orthogonalEdgeStyle;rounded=0;orthogonalLoop=1;jettySize=auto;html=1;entryX=0.316;entryY=0.795;entryDx=0;entryDy=0;entryPerimeter=0;" parent="1" source="U8FhN1sa_5-zTdxYwphC-62" target="U8FhN1sa_5-zTdxYwphC-29" edge="1">
          <mxGeometry relative="1" as="geometry" />
        </mxCell>
        <mxCell id="UJ53TDWJrt-Uf5NckLxE-52" value="" style="edgeStyle=entityRelationEdgeStyle;fontSize=12;html=1;endArrow=ERoneToMany;rounded=0;" parent="1" source="UJ53TDWJrt-Uf5NckLxE-1" target="UJ53TDWJrt-Uf5NckLxE-47" edge="1">
          <mxGeometry width="100" height="100" relative="1" as="geometry">
            <mxPoint x="350.0000000000002" y="121.00000000000023" as="sourcePoint" />
            <mxPoint x="499" y="206" as="targetPoint" />
            <Array as="points">
              <mxPoint x="499" y="294" />
            </Array>
          </mxGeometry>
        </mxCell>
        <mxCell id="AlrUzdBmBTRxOo9cYGfL-2" value="payment" style="html=1;verticalAlign=bottom;endArrow=block;curved=0;rounded=0;" edge="1" parent="1" source="U8FhN1sa_5-zTdxYwphC-2" target="AlrUzdBmBTRxOo9cYGfL-3">
          <mxGeometry width="80" relative="1" as="geometry">
            <mxPoint x="120" y="-680" as="sourcePoint" />
            <mxPoint x="200" y="-680" as="targetPoint" />
          </mxGeometry>
        </mxCell>
        <mxCell id="AlrUzdBmBTRxOo9cYGfL-3" value="Payment" style="shape=umlLifeline;perimeter=lifelinePerimeter;whiteSpace=wrap;html=1;container=1;dropTarget=0;collapsible=0;recursiveResize=0;outlineConnect=0;portConstraint=eastwest;newEdgeStyle={&quot;curved&quot;:0,&quot;rounded&quot;:0};" vertex="1" parent="1">
          <mxGeometry x="480" y="-990" width="100" height="520" as="geometry" />
        </mxCell>
        <mxCell id="AlrUzdBmBTRxOo9cYGfL-4" value="Payment" style="swimlane;fontStyle=0;childLayout=stackLayout;horizontal=1;startSize=26;fillColor=none;horizontalStack=0;resizeParent=1;resizeParentMax=0;resizeLast=0;collapsible=1;marginBottom=0;whiteSpace=wrap;html=1;" vertex="1" parent="1">
          <mxGeometry y="-104" width="140" height="208" as="geometry" />
        </mxCell>
        <mxCell id="AlrUzdBmBTRxOo9cYGfL-5" value="id" style="text;strokeColor=none;fillColor=none;align=left;verticalAlign=top;spacingLeft=4;spacingRight=4;overflow=hidden;rotatable=0;points=[[0,0.5],[1,0.5]];portConstraint=eastwest;whiteSpace=wrap;html=1;" vertex="1" parent="AlrUzdBmBTRxOo9cYGfL-4">
          <mxGeometry y="26" width="140" height="26" as="geometry" />
        </mxCell>
        <mxCell id="AlrUzdBmBTRxOo9cYGfL-6" value="association id" style="text;strokeColor=none;fillColor=none;align=left;verticalAlign=top;spacingLeft=4;spacingRight=4;overflow=hidden;rotatable=0;points=[[0,0.5],[1,0.5]];portConstraint=eastwest;whiteSpace=wrap;html=1;" vertex="1" parent="AlrUzdBmBTRxOo9cYGfL-4">
          <mxGeometry y="52" width="140" height="26" as="geometry" />
        </mxCell>
        <mxCell id="AlrUzdBmBTRxOo9cYGfL-7" value="subscriber id" style="text;strokeColor=none;fillColor=none;align=left;verticalAlign=top;spacingLeft=4;spacingRight=4;overflow=hidden;rotatable=0;points=[[0,0.5],[1,0.5]];portConstraint=eastwest;whiteSpace=wrap;html=1;" vertex="1" parent="AlrUzdBmBTRxOo9cYGfL-4">
          <mxGeometry y="78" width="140" height="26" as="geometry" />
        </mxCell>
        <mxCell id="AlrUzdBmBTRxOo9cYGfL-8" value="date of pay" style="text;strokeColor=none;fillColor=none;align=left;verticalAlign=top;spacingLeft=4;spacingRight=4;overflow=hidden;rotatable=0;points=[[0,0.5],[1,0.5]];portConstraint=eastwest;whiteSpace=wrap;html=1;" vertex="1" parent="AlrUzdBmBTRxOo9cYGfL-4">
          <mxGeometry y="104" width="140" height="26" as="geometry" />
        </mxCell>
        <mxCell id="AlrUzdBmBTRxOo9cYGfL-9" value="amount of money" style="text;strokeColor=none;fillColor=none;align=left;verticalAlign=top;spacingLeft=4;spacingRight=4;overflow=hidden;rotatable=0;points=[[0,0.5],[1,0.5]];portConstraint=eastwest;whiteSpace=wrap;html=1;" vertex="1" parent="AlrUzdBmBTRxOo9cYGfL-4">
          <mxGeometry y="130" width="140" height="26" as="geometry" />
        </mxCell>
        <mxCell id="AlrUzdBmBTRxOo9cYGfL-10" value="Total of money" style="text;strokeColor=none;fillColor=none;align=left;verticalAlign=top;spacingLeft=4;spacingRight=4;overflow=hidden;rotatable=0;points=[[0,0.5],[1,0.5]];portConstraint=eastwest;whiteSpace=wrap;html=1;" vertex="1" parent="AlrUzdBmBTRxOo9cYGfL-4">
          <mxGeometry y="156" width="140" height="26" as="geometry" />
        </mxCell>
        <mxCell id="AlrUzdBmBTRxOo9cYGfL-11" value="current member" style="text;strokeColor=none;fillColor=none;align=left;verticalAlign=top;spacingLeft=4;spacingRight=4;overflow=hidden;rotatable=0;points=[[0,0.5],[1,0.5]];portConstraint=eastwest;whiteSpace=wrap;html=1;" vertex="1" parent="AlrUzdBmBTRxOo9cYGfL-4">
          <mxGeometry y="182" width="140" height="26" as="geometry" />
        </mxCell>
        <mxCell id="AlrUzdBmBTRxOo9cYGfL-12" value="" style="edgeStyle=entityRelationEdgeStyle;fontSize=12;html=1;endArrow=ERoneToMany;rounded=0;" edge="1" parent="1" source="UJ53TDWJrt-Uf5NckLxE-41" target="AlrUzdBmBTRxOo9cYGfL-7">
          <mxGeometry width="100" height="100" relative="1" as="geometry">
            <mxPoint x="110" y="-160" as="sourcePoint" />
            <mxPoint x="210" y="-260" as="targetPoint" />
          </mxGeometry>
        </mxCell>
        <mxCell id="AlrUzdBmBTRxOo9cYGfL-13" value="" style="edgeStyle=entityRelationEdgeStyle;fontSize=12;html=1;endArrow=ERoneToMany;rounded=0;" edge="1" parent="1" source="UJ53TDWJrt-Uf5NckLxE-1" target="AlrUzdBmBTRxOo9cYGfL-6">
          <mxGeometry width="100" height="100" relative="1" as="geometry">
            <mxPoint x="250" y="-29" as="sourcePoint" />
            <mxPoint x="150" y="-3" as="targetPoint" />
          </mxGeometry>
        </mxCell>
        <mxCell id="AlrUzdBmBTRxOo9cYGfL-14" value="success mesage" style="html=1;verticalAlign=bottom;endArrow=open;dashed=1;endSize=8;curved=0;rounded=0;" edge="1" parent="1">
          <mxGeometry relative="1" as="geometry">
            <mxPoint x="529" y="-627.5" as="sourcePoint" />
            <mxPoint x="99" y="-627.5" as="targetPoint" />
            <Array as="points">
              <mxPoint x="259.5" y="-627.5" />
            </Array>
          </mxGeometry>
        </mxCell>
        <mxCell id="AlrUzdBmBTRxOo9cYGfL-18" value="check the money" style="html=1;align=left;spacingLeft=2;endArrow=block;rounded=0;edgeStyle=orthogonalEdgeStyle;curved=0;rounded=0;" edge="1" parent="1">
          <mxGeometry relative="1" as="geometry">
            <mxPoint x="530" y="-690" as="sourcePoint" />
            <Array as="points">
              <mxPoint x="560" y="-660" />
            </Array>
            <mxPoint x="535" y="-660" as="targetPoint" />
          </mxGeometry>
        </mxCell>
        <mxCell id="AlrUzdBmBTRxOo9cYGfL-19" value="frame" style="shape=umlFrame;whiteSpace=wrap;html=1;pointerEvents=0;" vertex="1" parent="1">
          <mxGeometry x="19" y="-650" width="550" height="90" as="geometry" />
        </mxCell>
        <mxCell id="AlrUzdBmBTRxOo9cYGfL-20" value="if can pay" style="text;html=1;align=center;verticalAlign=middle;resizable=0;points=[];autosize=1;strokeColor=none;fillColor=none;" vertex="1" parent="1">
          <mxGeometry x="20" y="-620" width="70" height="30" as="geometry" />
        </mxCell>
        <mxCell id="AlrUzdBmBTRxOo9cYGfL-21" value="Wrong message" style="html=1;verticalAlign=bottom;endArrow=open;dashed=1;endSize=8;curved=0;rounded=0;" edge="1" parent="1">
          <mxGeometry relative="1" as="geometry">
            <mxPoint x="529" y="-591" as="sourcePoint" />
            <mxPoint x="99" y="-591" as="targetPoint" />
            <Array as="points">
              <mxPoint x="259.5" y="-591" />
            </Array>
          </mxGeometry>
        </mxCell>
        <mxCell id="AlrUzdBmBTRxOo9cYGfL-22" value="display" style="html=1;verticalAlign=bottom;endArrow=block;curved=0;rounded=0;" edge="1" parent="1" target="AlrUzdBmBTRxOo9cYGfL-3">
          <mxGeometry width="80" relative="1" as="geometry">
            <mxPoint x="100" y="-530" as="sourcePoint" />
            <mxPoint x="180" y="-530" as="targetPoint" />
          </mxGeometry>
        </mxCell>
        <mxCell id="AlrUzdBmBTRxOo9cYGfL-23" value="display" style="html=1;verticalAlign=bottom;endArrow=block;curved=0;rounded=0;" edge="1" parent="1">
          <mxGeometry width="80" relative="1" as="geometry">
            <mxPoint x="410" y="-510" as="sourcePoint" />
            <mxPoint x="540" y="-510" as="targetPoint" />
          </mxGeometry>
        </mxCell>
        <mxCell id="AlrUzdBmBTRxOo9cYGfL-24" value="return data" style="html=1;verticalAlign=bottom;endArrow=open;dashed=1;endSize=8;curved=0;rounded=0;" edge="1" parent="1">
          <mxGeometry relative="1" as="geometry">
            <mxPoint x="533.5" y="-490" as="sourcePoint" />
            <mxPoint x="413.5" y="-490" as="targetPoint" />
          </mxGeometry>
        </mxCell>
        <mxCell id="AlrUzdBmBTRxOo9cYGfL-26" value="return data" style="html=1;verticalAlign=bottom;endArrow=open;dashed=1;endSize=8;curved=0;rounded=0;" edge="1" parent="1" target="U8FhN1sa_5-zTdxYwphC-2">
          <mxGeometry relative="1" as="geometry">
            <mxPoint x="534" y="-480" as="sourcePoint" />
            <mxPoint x="414" y="-480" as="targetPoint" />
          </mxGeometry>
        </mxCell>
      </root>
    </mxGraphModel>
  </diagram>
</mxfile>
